<mxfile host="app.diagrams.net" modified="2024-02-16T03:31:39.401Z" agent="Mozilla/5.0 (Windows NT 10.0; Win64; x64) AppleWebKit/537.36 (KHTML, like Gecko) Chrome/121.0.0.0 Safari/537.36" etag="6RFN6aFjwscTwwIs7YCm" version="23.1.4" type="github">
  <diagram name="Page-1" id="xmXRdG-sKyQROSaUTSlD">
    <mxGraphModel dx="2140" dy="1622" grid="1" gridSize="10" guides="1" tooltips="1" connect="1" arrows="1" fold="1" page="1" pageScale="1" pageWidth="850" pageHeight="1100" math="0" shadow="0">
      <root>
        <mxCell id="0" />
        <mxCell id="1" parent="0" />
        <mxCell id="0jvtn3J85MY-8arE1WR6-1" value="Pen" style="swimlane;fontStyle=1;align=center;verticalAlign=top;childLayout=stackLayout;horizontal=1;startSize=26;horizontalStack=0;resizeParent=1;resizeParentMax=0;resizeLast=0;collapsible=1;marginBottom=0;whiteSpace=wrap;html=1;" parent="1" vertex="1">
          <mxGeometry x="120" y="40" width="300" height="52" as="geometry" />
        </mxCell>
        <mxCell id="9pGdeWcGa8q7Lx5Dke14-13" value="+ penType: PenType" style="text;strokeColor=none;fillColor=none;align=left;verticalAlign=top;spacingLeft=4;spacingRight=4;overflow=hidden;rotatable=0;points=[[0,0.5],[1,0.5]];portConstraint=eastwest;whiteSpace=wrap;html=1;" vertex="1" parent="0jvtn3J85MY-8arE1WR6-1">
          <mxGeometry y="26" width="300" height="26" as="geometry" />
        </mxCell>
        <mxCell id="0jvtn3J85MY-8arE1WR6-13" value="Extends" style="endArrow=block;endSize=16;endFill=0;html=1;rounded=0;exitX=0.25;exitY=0;exitDx=0;exitDy=0;entryX=0;entryY=0.5;entryDx=0;entryDy=0;" parent="1" source="0jvtn3J85MY-8arE1WR6-15" edge="1" target="9pGdeWcGa8q7Lx5Dke14-10">
          <mxGeometry width="160" relative="1" as="geometry">
            <mxPoint x="-52.80000000000018" y="316.3900000000001" as="sourcePoint" />
            <mxPoint x="-92.5" y="340" as="targetPoint" />
          </mxGeometry>
        </mxCell>
        <mxCell id="0jvtn3J85MY-8arE1WR6-15" value="BallPen" style="swimlane;fontStyle=0;childLayout=stackLayout;horizontal=1;startSize=26;fillColor=none;horizontalStack=0;resizeParent=1;resizeParentMax=0;resizeLast=0;collapsible=1;marginBottom=0;whiteSpace=wrap;html=1;" parent="1" vertex="1">
          <mxGeometry x="-280" y="440" width="140" height="52" as="geometry" />
        </mxCell>
        <mxCell id="0jvtn3J85MY-8arE1WR6-19" value="GelPen" style="swimlane;fontStyle=0;childLayout=stackLayout;horizontal=1;startSize=26;fillColor=none;horizontalStack=0;resizeParent=1;resizeParentMax=0;resizeLast=0;collapsible=1;marginBottom=0;whiteSpace=wrap;html=1;" parent="1" vertex="1">
          <mxGeometry x="-100" y="450" width="140" height="52" as="geometry" />
        </mxCell>
        <mxCell id="0jvtn3J85MY-8arE1WR6-20" value="MarkerPen" style="swimlane;fontStyle=0;childLayout=stackLayout;horizontal=1;startSize=26;fillColor=none;horizontalStack=0;resizeParent=1;resizeParentMax=0;resizeLast=0;collapsible=1;marginBottom=0;whiteSpace=wrap;html=1;" parent="1" vertex="1">
          <mxGeometry x="80" y="432" width="140" height="52" as="geometry" />
        </mxCell>
        <mxCell id="0jvtn3J85MY-8arE1WR6-21" value="Extends" style="endArrow=block;endSize=16;endFill=0;html=1;rounded=0;entryX=1;entryY=0.5;entryDx=0;entryDy=0;exitX=0.75;exitY=0;exitDx=0;exitDy=0;" parent="1" source="0jvtn3J85MY-8arE1WR6-19" target="9pGdeWcGa8q7Lx5Dke14-10" edge="1">
          <mxGeometry width="160" relative="1" as="geometry">
            <mxPoint x="-65" y="420" as="sourcePoint" />
            <mxPoint x="-65" y="340" as="targetPoint" />
          </mxGeometry>
        </mxCell>
        <mxCell id="0jvtn3J85MY-8arE1WR6-22" value="Extends" style="endArrow=block;endSize=16;endFill=0;html=1;rounded=0;exitX=0.75;exitY=0;exitDx=0;exitDy=0;entryX=1;entryY=0.5;entryDx=0;entryDy=0;" parent="1" source="0jvtn3J85MY-8arE1WR6-20" target="9pGdeWcGa8q7Lx5Dke14-8" edge="1">
          <mxGeometry width="160" relative="1" as="geometry">
            <mxPoint x="358.4000000000001" y="255.99599999999992" as="sourcePoint" />
            <mxPoint x="-10" y="315" as="targetPoint" />
          </mxGeometry>
        </mxCell>
        <mxCell id="0jvtn3J85MY-8arE1WR6-23" value="Pencil" style="swimlane;fontStyle=1;align=center;verticalAlign=top;childLayout=stackLayout;horizontal=1;startSize=26;horizontalStack=0;resizeParent=1;resizeParentMax=0;resizeLast=0;collapsible=1;marginBottom=0;whiteSpace=wrap;html=1;" parent="1" vertex="1">
          <mxGeometry x="480" y="40" width="300" height="52" as="geometry" />
        </mxCell>
        <mxCell id="0jvtn3J85MY-8arE1WR6-26" value="+ pencilType: PencilType" style="text;strokeColor=none;fillColor=none;align=left;verticalAlign=top;spacingLeft=4;spacingRight=4;overflow=hidden;rotatable=0;points=[[0,0.5],[1,0.5]];portConstraint=eastwest;whiteSpace=wrap;html=1;" parent="0jvtn3J85MY-8arE1WR6-23" vertex="1">
          <mxGeometry y="26" width="300" height="26" as="geometry" />
        </mxCell>
        <mxCell id="0jvtn3J85MY-8arE1WR6-32" value="NormalPencil" style="swimlane;fontStyle=0;childLayout=stackLayout;horizontal=1;startSize=26;fillColor=none;horizontalStack=0;resizeParent=1;resizeParentMax=0;resizeLast=0;collapsible=1;marginBottom=0;whiteSpace=wrap;html=1;" parent="1" vertex="1">
          <mxGeometry x="425" y="320" width="140" height="52" as="geometry" />
        </mxCell>
        <mxCell id="0jvtn3J85MY-8arE1WR6-33" value="PremiumPencil" style="swimlane;fontStyle=0;childLayout=stackLayout;horizontal=1;startSize=26;fillColor=none;horizontalStack=0;resizeParent=1;resizeParentMax=0;resizeLast=0;collapsible=1;marginBottom=0;whiteSpace=wrap;html=1;" parent="1" vertex="1">
          <mxGeometry x="660" y="320" width="140" height="52" as="geometry" />
        </mxCell>
        <mxCell id="0jvtn3J85MY-8arE1WR6-34" value="Extends" style="endArrow=block;endSize=16;endFill=0;html=1;rounded=0;entryX=0.25;entryY=0;entryDx=0;entryDy=0;exitX=0;exitY=0.5;exitDx=0;exitDy=0;" parent="1" source="9pGdeWcGa8q7Lx5Dke14-29" edge="1" target="0jvtn3J85MY-8arE1WR6-32">
          <mxGeometry width="160" relative="1" as="geometry">
            <mxPoint x="550" y="270" as="sourcePoint" />
            <mxPoint x="577" y="380" as="targetPoint" />
          </mxGeometry>
        </mxCell>
        <mxCell id="0jvtn3J85MY-8arE1WR6-35" value="Extends" style="endArrow=block;endSize=16;endFill=0;html=1;rounded=0;entryX=0.75;entryY=0;entryDx=0;entryDy=0;exitX=1;exitY=0.5;exitDx=0;exitDy=0;" parent="1" edge="1" target="0jvtn3J85MY-8arE1WR6-33" source="9pGdeWcGa8q7Lx5Dke14-28">
          <mxGeometry width="160" relative="1" as="geometry">
            <mxPoint x="690" y="262" as="sourcePoint" />
            <mxPoint x="758" y="380" as="targetPoint" />
          </mxGeometry>
        </mxCell>
        <mxCell id="0jvtn3J85MY-8arE1WR6-37" value="RefillablePen" style="swimlane;fontStyle=0;childLayout=stackLayout;horizontal=1;startSize=26;fillColor=none;horizontalStack=0;resizeParent=1;resizeParentMax=0;resizeLast=0;collapsible=1;marginBottom=0;whiteSpace=wrap;html=1;" parent="1" vertex="1">
          <mxGeometry x="-230" y="204" width="140" height="52" as="geometry" />
        </mxCell>
        <mxCell id="0jvtn3J85MY-8arE1WR6-38" value="NonRefillablePen" style="swimlane;fontStyle=0;childLayout=stackLayout;horizontal=1;startSize=26;fillColor=none;horizontalStack=0;resizeParent=1;resizeParentMax=0;resizeLast=0;collapsible=1;marginBottom=0;whiteSpace=wrap;html=1;" parent="1" vertex="1">
          <mxGeometry x="-55" y="204" width="140" height="52" as="geometry" />
        </mxCell>
        <mxCell id="0jvtn3J85MY-8arE1WR6-44" value="" style="endArrow=diamondThin;endFill=0;endSize=24;html=1;rounded=0;exitX=0;exitY=0.5;exitDx=0;exitDy=0;entryX=0;entryY=0.5;entryDx=0;entryDy=0;" parent="1" source="9pGdeWcGa8q7Lx5Dke14-33" target="9pGdeWcGa8q7Lx5Dke14-8" edge="1">
          <mxGeometry width="160" relative="1" as="geometry">
            <mxPoint x="-180" y="62.5" as="sourcePoint" />
            <mxPoint x="-330" y="310" as="targetPoint" />
            <Array as="points">
              <mxPoint x="-330" y="220" />
            </Array>
          </mxGeometry>
        </mxCell>
        <mxCell id="9pGdeWcGa8q7Lx5Dke14-7" value="PenType" style="swimlane;fontStyle=1;align=center;verticalAlign=top;childLayout=stackLayout;horizontal=1;startSize=26;horizontalStack=0;resizeParent=1;resizeParentMax=0;resizeLast=0;collapsible=1;marginBottom=0;whiteSpace=wrap;html=1;" vertex="1" parent="1">
          <mxGeometry x="-215" y="262" width="185" height="138" as="geometry" />
        </mxCell>
        <mxCell id="9pGdeWcGa8q7Lx5Dke14-8" value="+ refillBehavior: RefillBehavior" style="text;strokeColor=none;fillColor=none;align=left;verticalAlign=top;spacingLeft=4;spacingRight=4;overflow=hidden;rotatable=0;points=[[0,0.5],[1,0.5]];portConstraint=eastwest;whiteSpace=wrap;html=1;" vertex="1" parent="9pGdeWcGa8q7Lx5Dke14-7">
          <mxGeometry y="26" width="185" height="26" as="geometry" />
        </mxCell>
        <mxCell id="9pGdeWcGa8q7Lx5Dke14-31" value="+ color: Color" style="text;strokeColor=none;fillColor=none;align=left;verticalAlign=top;spacingLeft=4;spacingRight=4;overflow=hidden;rotatable=0;points=[[0,0.5],[1,0.5]];portConstraint=eastwest;whiteSpace=wrap;html=1;" vertex="1" parent="9pGdeWcGa8q7Lx5Dke14-7">
          <mxGeometry y="52" width="185" height="26" as="geometry" />
        </mxCell>
        <mxCell id="9pGdeWcGa8q7Lx5Dke14-9" value="" style="line;strokeWidth=1;fillColor=none;align=left;verticalAlign=middle;spacingTop=-1;spacingLeft=3;spacingRight=3;rotatable=0;labelPosition=right;points=[];portConstraint=eastwest;strokeColor=inherit;" vertex="1" parent="9pGdeWcGa8q7Lx5Dke14-7">
          <mxGeometry y="78" width="185" height="8" as="geometry" />
        </mxCell>
        <mxCell id="9pGdeWcGa8q7Lx5Dke14-10" value="+ write(type): void" style="text;strokeColor=none;fillColor=none;align=left;verticalAlign=top;spacingLeft=4;spacingRight=4;overflow=hidden;rotatable=0;points=[[0,0.5],[1,0.5]];portConstraint=eastwest;whiteSpace=wrap;html=1;" vertex="1" parent="9pGdeWcGa8q7Lx5Dke14-7">
          <mxGeometry y="86" width="185" height="26" as="geometry" />
        </mxCell>
        <mxCell id="9pGdeWcGa8q7Lx5Dke14-14" value="+ refill(): void" style="text;strokeColor=none;fillColor=none;align=left;verticalAlign=top;spacingLeft=4;spacingRight=4;overflow=hidden;rotatable=0;points=[[0,0.5],[1,0.5]];portConstraint=eastwest;whiteSpace=wrap;html=1;" vertex="1" parent="9pGdeWcGa8q7Lx5Dke14-7">
          <mxGeometry y="112" width="185" height="26" as="geometry" />
        </mxCell>
        <mxCell id="9pGdeWcGa8q7Lx5Dke14-15" value="" style="endArrow=diamondThin;endFill=0;endSize=24;html=1;rounded=0;exitX=1;exitY=0.25;exitDx=0;exitDy=0;entryX=0;entryY=0.5;entryDx=0;entryDy=0;" edge="1" parent="1" source="9pGdeWcGa8q7Lx5Dke14-7">
          <mxGeometry width="160" relative="1" as="geometry">
            <mxPoint x="-55" y="192" as="sourcePoint" />
            <mxPoint x="120" y="79" as="targetPoint" />
            <Array as="points">
              <mxPoint x="135" y="289" />
              <mxPoint x="110" y="220" />
              <mxPoint x="80" y="140" />
            </Array>
          </mxGeometry>
        </mxCell>
        <mxCell id="9pGdeWcGa8q7Lx5Dke14-16" value="Writer" style="swimlane;fontStyle=1;align=center;verticalAlign=top;childLayout=stackLayout;horizontal=1;startSize=26;horizontalStack=0;resizeParent=1;resizeParentMax=0;resizeLast=0;collapsible=1;marginBottom=0;whiteSpace=wrap;html=1;" vertex="1" parent="1">
          <mxGeometry x="290" y="-220" width="190" height="190" as="geometry" />
        </mxCell>
        <mxCell id="9pGdeWcGa8q7Lx5Dke14-17" value="+ name: string" style="text;strokeColor=none;fillColor=none;align=left;verticalAlign=top;spacingLeft=4;spacingRight=4;overflow=hidden;rotatable=0;points=[[0,0.5],[1,0.5]];portConstraint=eastwest;whiteSpace=wrap;html=1;" vertex="1" parent="9pGdeWcGa8q7Lx5Dke14-16">
          <mxGeometry y="26" width="190" height="26" as="geometry" />
        </mxCell>
        <mxCell id="9pGdeWcGa8q7Lx5Dke14-18" value="+ brand: string" style="text;strokeColor=none;fillColor=none;align=left;verticalAlign=top;spacingLeft=4;spacingRight=4;overflow=hidden;rotatable=0;points=[[0,0.5],[1,0.5]];portConstraint=eastwest;whiteSpace=wrap;html=1;" vertex="1" parent="9pGdeWcGa8q7Lx5Dke14-16">
          <mxGeometry y="52" width="190" height="26" as="geometry" />
        </mxCell>
        <mxCell id="9pGdeWcGa8q7Lx5Dke14-19" value="+ price: string" style="text;strokeColor=none;fillColor=none;align=left;verticalAlign=top;spacingLeft=4;spacingRight=4;overflow=hidden;rotatable=0;points=[[0,0.5],[1,0.5]];portConstraint=eastwest;whiteSpace=wrap;html=1;" vertex="1" parent="9pGdeWcGa8q7Lx5Dke14-16">
          <mxGeometry y="78" width="190" height="26" as="geometry" />
        </mxCell>
        <mxCell id="9pGdeWcGa8q7Lx5Dke14-21" value="" style="line;strokeWidth=1;fillColor=none;align=left;verticalAlign=middle;spacingTop=-1;spacingLeft=3;spacingRight=3;rotatable=0;labelPosition=right;points=[];portConstraint=eastwest;strokeColor=inherit;" vertex="1" parent="9pGdeWcGa8q7Lx5Dke14-16">
          <mxGeometry y="104" width="190" height="8" as="geometry" />
        </mxCell>
        <mxCell id="9pGdeWcGa8q7Lx5Dke14-24" value="+ refill(): void" style="text;strokeColor=none;fillColor=none;align=left;verticalAlign=top;spacingLeft=4;spacingRight=4;overflow=hidden;rotatable=0;points=[[0,0.5],[1,0.5]];portConstraint=eastwest;whiteSpace=wrap;html=1;" vertex="1" parent="9pGdeWcGa8q7Lx5Dke14-16">
          <mxGeometry y="112" width="190" height="26" as="geometry" />
        </mxCell>
        <mxCell id="9pGdeWcGa8q7Lx5Dke14-22" value="+ write(void): void" style="text;strokeColor=none;fillColor=none;align=left;verticalAlign=top;spacingLeft=4;spacingRight=4;overflow=hidden;rotatable=0;points=[[0,0.5],[1,0.5]];portConstraint=eastwest;whiteSpace=wrap;html=1;" vertex="1" parent="9pGdeWcGa8q7Lx5Dke14-16">
          <mxGeometry y="138" width="190" height="26" as="geometry" />
        </mxCell>
        <mxCell id="0jvtn3J85MY-8arE1WR6-11" value="+ display(void): void" style="text;strokeColor=none;fillColor=none;align=left;verticalAlign=top;spacingLeft=4;spacingRight=4;overflow=hidden;rotatable=0;points=[[0,0.5],[1,0.5]];portConstraint=eastwest;whiteSpace=wrap;html=1;" parent="9pGdeWcGa8q7Lx5Dke14-16" vertex="1">
          <mxGeometry y="164" width="190" height="26" as="geometry" />
        </mxCell>
        <mxCell id="9pGdeWcGa8q7Lx5Dke14-25" value="PencilType" style="swimlane;fontStyle=1;align=center;verticalAlign=top;childLayout=stackLayout;horizontal=1;startSize=26;horizontalStack=0;resizeParent=1;resizeParentMax=0;resizeLast=0;collapsible=1;marginBottom=0;whiteSpace=wrap;html=1;" vertex="1" parent="1">
          <mxGeometry x="520" y="174" width="185" height="112" as="geometry" />
        </mxCell>
        <mxCell id="9pGdeWcGa8q7Lx5Dke14-26" value="+ refillBehavior: RefillBehavior" style="text;strokeColor=none;fillColor=none;align=left;verticalAlign=top;spacingLeft=4;spacingRight=4;overflow=hidden;rotatable=0;points=[[0,0.5],[1,0.5]];portConstraint=eastwest;whiteSpace=wrap;html=1;" vertex="1" parent="9pGdeWcGa8q7Lx5Dke14-25">
          <mxGeometry y="26" width="185" height="26" as="geometry" />
        </mxCell>
        <mxCell id="9pGdeWcGa8q7Lx5Dke14-27" value="" style="line;strokeWidth=1;fillColor=none;align=left;verticalAlign=middle;spacingTop=-1;spacingLeft=3;spacingRight=3;rotatable=0;labelPosition=right;points=[];portConstraint=eastwest;strokeColor=inherit;" vertex="1" parent="9pGdeWcGa8q7Lx5Dke14-25">
          <mxGeometry y="52" width="185" height="8" as="geometry" />
        </mxCell>
        <mxCell id="9pGdeWcGa8q7Lx5Dke14-28" value="+ write(type): void" style="text;strokeColor=none;fillColor=none;align=left;verticalAlign=top;spacingLeft=4;spacingRight=4;overflow=hidden;rotatable=0;points=[[0,0.5],[1,0.5]];portConstraint=eastwest;whiteSpace=wrap;html=1;" vertex="1" parent="9pGdeWcGa8q7Lx5Dke14-25">
          <mxGeometry y="60" width="185" height="26" as="geometry" />
        </mxCell>
        <mxCell id="9pGdeWcGa8q7Lx5Dke14-29" value="+ refill(): void" style="text;strokeColor=none;fillColor=none;align=left;verticalAlign=top;spacingLeft=4;spacingRight=4;overflow=hidden;rotatable=0;points=[[0,0.5],[1,0.5]];portConstraint=eastwest;whiteSpace=wrap;html=1;" vertex="1" parent="9pGdeWcGa8q7Lx5Dke14-25">
          <mxGeometry y="86" width="185" height="26" as="geometry" />
        </mxCell>
        <mxCell id="9pGdeWcGa8q7Lx5Dke14-30" value="" style="endArrow=diamondThin;endFill=0;endSize=24;html=1;rounded=0;exitX=0;exitY=0.5;exitDx=0;exitDy=0;" edge="1" parent="1" source="9pGdeWcGa8q7Lx5Dke14-28">
          <mxGeometry width="160" relative="1" as="geometry">
            <mxPoint x="440" y="250" as="sourcePoint" />
            <mxPoint x="480" y="79" as="targetPoint" />
            <Array as="points">
              <mxPoint x="420" y="110" />
            </Array>
          </mxGeometry>
        </mxCell>
        <mxCell id="9pGdeWcGa8q7Lx5Dke14-32" value="RefillBehavior" style="swimlane;fontStyle=1;align=center;verticalAlign=top;childLayout=stackLayout;horizontal=1;startSize=26;horizontalStack=0;resizeParent=1;resizeParentMax=0;resizeLast=0;collapsible=1;marginBottom=0;whiteSpace=wrap;html=1;" vertex="1" parent="1">
          <mxGeometry x="-240" y="10" width="300" height="104" as="geometry" />
        </mxCell>
        <mxCell id="9pGdeWcGa8q7Lx5Dke14-33" value="+ refilType: refillType" style="text;strokeColor=none;fillColor=none;align=left;verticalAlign=top;spacingLeft=4;spacingRight=4;overflow=hidden;rotatable=0;points=[[0,0.5],[1,0.5]];portConstraint=eastwest;whiteSpace=wrap;html=1;" vertex="1" parent="9pGdeWcGa8q7Lx5Dke14-32">
          <mxGeometry y="26" width="300" height="26" as="geometry" />
        </mxCell>
        <mxCell id="9pGdeWcGa8q7Lx5Dke14-39" value="+ refill(PenType, Color): void" style="text;strokeColor=none;fillColor=none;align=left;verticalAlign=top;spacingLeft=4;spacingRight=4;overflow=hidden;rotatable=0;points=[[0,0.5],[1,0.5]];portConstraint=eastwest;whiteSpace=wrap;html=1;" vertex="1" parent="9pGdeWcGa8q7Lx5Dke14-32">
          <mxGeometry y="52" width="300" height="26" as="geometry" />
        </mxCell>
        <mxCell id="9pGdeWcGa8q7Lx5Dke14-34" value="+ getRefillType(): RefillType" style="text;strokeColor=none;fillColor=none;align=left;verticalAlign=top;spacingLeft=4;spacingRight=4;overflow=hidden;rotatable=0;points=[[0,0.5],[1,0.5]];portConstraint=eastwest;whiteSpace=wrap;html=1;" vertex="1" parent="9pGdeWcGa8q7Lx5Dke14-32">
          <mxGeometry y="78" width="300" height="26" as="geometry" />
        </mxCell>
        <mxCell id="9pGdeWcGa8q7Lx5Dke14-35" value="Extends" style="endArrow=block;endSize=16;endFill=0;html=1;rounded=0;exitX=0.25;exitY=0;exitDx=0;exitDy=0;entryX=0;entryY=0.5;entryDx=0;entryDy=0;" edge="1" parent="1" target="9pGdeWcGa8q7Lx5Dke14-34">
          <mxGeometry width="160" relative="1" as="geometry">
            <mxPoint x="-170" y="204" as="sourcePoint" />
            <mxPoint x="-210" y="100" as="targetPoint" />
          </mxGeometry>
        </mxCell>
        <mxCell id="9pGdeWcGa8q7Lx5Dke14-36" value="Extends" style="endArrow=block;endSize=16;endFill=0;html=1;rounded=0;entryX=1;entryY=0.5;entryDx=0;entryDy=0;exitX=0.25;exitY=0;exitDx=0;exitDy=0;" edge="1" parent="1" source="0jvtn3J85MY-8arE1WR6-23" target="9pGdeWcGa8q7Lx5Dke14-22">
          <mxGeometry width="160" relative="1" as="geometry">
            <mxPoint x="560" as="sourcePoint" />
            <mxPoint x="655" y="-169" as="targetPoint" />
          </mxGeometry>
        </mxCell>
        <mxCell id="9pGdeWcGa8q7Lx5Dke14-37" value="Extends" style="endArrow=block;endSize=16;endFill=0;html=1;rounded=0;entryX=0;entryY=0.5;entryDx=0;entryDy=0;exitX=0.25;exitY=0;exitDx=0;exitDy=0;" edge="1" parent="1">
          <mxGeometry width="160" relative="1" as="geometry">
            <mxPoint x="205" y="50" as="sourcePoint" />
            <mxPoint x="300" y="-119" as="targetPoint" />
          </mxGeometry>
        </mxCell>
        <mxCell id="9pGdeWcGa8q7Lx5Dke14-38" value="Extends" style="endArrow=block;endSize=16;endFill=0;html=1;rounded=0;exitX=0.25;exitY=0;exitDx=0;exitDy=0;entryX=1;entryY=0.5;entryDx=0;entryDy=0;" edge="1" parent="1" target="9pGdeWcGa8q7Lx5Dke14-34">
          <mxGeometry width="160" relative="1" as="geometry">
            <mxPoint x="40" y="204" as="sourcePoint" />
            <mxPoint x="12" y="89" as="targetPoint" />
          </mxGeometry>
        </mxCell>
      </root>
    </mxGraphModel>
  </diagram>
</mxfile>
